HIERARCHY
ROOT Hips
{
	OFFSET 0.000000 0.000000 0.000000
	CHANNELS 6 Xposition Yposition Zposition Zrotation Yrotation Xrotation 
	JOINT Spine1
	{
		OFFSET -0.013727 5.003762 -0.053727
		CHANNELS 3 Zrotation Yrotation Xrotation
		JOINT Spine2
		{
			OFFSET -0.000000 7.125302 -0.029825
			CHANNELS 3 Zrotation Yrotation Xrotation
			JOINT Chest
			{
				OFFSET -0.000001 7.550065 -0.815971
				CHANNELS 3 Zrotation Yrotation Xrotation
				JOINT Neck1
				{
					OFFSET -0.181676 26.311296 -0.553348
					CHANNELS 3 Zrotation Yrotation Xrotation
					JOINT Neck2
					{
						OFFSET -0.000003 7.709397 2.302586
						CHANNELS 3 Zrotation Yrotation Xrotation
						JOINT Head
						{
							OFFSET -0.000004 6.128914 1.953708
							CHANNELS 3 Zrotation Yrotation Xrotation
							JOINT HeadEnd
							{
								OFFSET 0.003598 16.065403 -1.835380
								CHANNELS 3 Zrotation Yrotation Xrotation
								End Site
								{
									OFFSET 0.000000 0.000000 0.000000
								}
							}
							JOINT Jaw
							{
								OFFSET 0.002637 0.475592 3.094941
								CHANNELS 3 Zrotation Yrotation Xrotation
								End Site
								{
									OFFSET 0.000000 0.000000 0.000000
								}
							}
							JOINT LeftEye
							{
								OFFSET 3.206381 5.380207 7.586883
								CHANNELS 3 Zrotation Yrotation Xrotation
								End Site
								{
									OFFSET 0.000000 0.000000 0.000000
								}
							}
							JOINT RightEye
							{
								OFFSET -3.222440 5.361868 7.558233
								CHANNELS 3 Zrotation Yrotation Xrotation
								End Site
								{
									OFFSET 0.000000 0.000000 0.000000
								}
							}
						}
					}
				}
				JOINT LeftShoulder
				{
					OFFSET 1.621652 23.237164 5.113413
					CHANNELS 3 Zrotation Yrotation Xrotation
					JOINT LeftArm
					{
						OFFSET 14.919845 0.000002 -5.502327
						CHANNELS 3 Zrotation Yrotation Xrotation
						JOINT LeftForeArm
						{
							OFFSET 28.739309 0.000003 -0.002588
							CHANNELS 3 Zrotation Yrotation Xrotation
							JOINT LeftHand
							{
								OFFSET 27.093979 -0.000003 0.002609
								CHANNELS 3 Zrotation Yrotation Xrotation
								JOINT LeftHandThumb1
								{
									OFFSET 2.276481 -1.392045 3.191414
									CHANNELS 3 Zrotation Yrotation Xrotation
									JOINT LeftHandThumb2
									{
										OFFSET 4.012841 -1.828127 1.641655
										CHANNELS 3 Zrotation Yrotation Xrotation
										JOINT LeftHandThumb3
										{
											OFFSET 2.798517 0.000002 -0.000003
											CHANNELS 3 Zrotation Yrotation Xrotation
											JOINT LeftHandThumbEnd
											{
												OFFSET 3.180792 -0.000002 0.000002
												CHANNELS 3 Zrotation Yrotation Xrotation
												End Site
												{
													OFFSET 0.000000 0.000000 0.000000
												}
											}
										}
									}
								}
								JOINT LeftHandIndex1
								{
									OFFSET 3.247554 -0.531998 2.296170
									CHANNELS 3 Zrotation Yrotation Xrotation
									JOINT LeftHandIndex2
									{
										OFFSET 6.364579 0.012062 0.178600
										CHANNELS 3 Zrotation Yrotation Xrotation
										JOINT LeftHandIndex3
										{
											OFFSET 3.662366 0.000001 0.000000
											CHANNELS 3 Zrotation Yrotation Xrotation
											JOINT LeftHandIndex4
											{
												OFFSET 2.329241 0.000001 0.000002
												CHANNELS 3 Zrotation Yrotation Xrotation
												JOINT LeftHandIndexEnd
												{
													OFFSET 2.759619 -0.180538 -0.113023
													CHANNELS 3 Zrotation Yrotation Xrotation
													End Site
													{
														OFFSET 0.000000 0.000000 0.000000
													}
												}
											}
										}
									}
								}
								JOINT LeftHandMiddle1
								{
									OFFSET 3.163498 0.240982 1.000332
									CHANNELS 3 Zrotation Yrotation Xrotation
									JOINT LeftHandMiddle2
									{
										OFFSET 6.190779 -0.259276 -1.002548
										CHANNELS 3 Zrotation Yrotation Xrotation
										JOINT LeftHandMiddle3
										{
											OFFSET 4.356523 -0.000006 0.000001
											CHANNELS 3 Zrotation Yrotation Xrotation
											JOINT LeftHandMiddle4
											{
												OFFSET 2.996875 -0.000008 0.000000
												CHANNELS 3 Zrotation Yrotation Xrotation
												JOINT LeftHandMiddleEnd
												{
													OFFSET 2.304294 -0.294572 -0.031740
													CHANNELS 3 Zrotation Yrotation Xrotation
													End Site
													{
														OFFSET 0.000000 0.000000 0.000000
													}
												}
											}
										}
									}
								}
								JOINT LeftHandRing1
								{
									OFFSET 2.882643 -0.053650 -0.322543
									CHANNELS 3 Zrotation Yrotation Xrotation
									JOINT LeftHandRing2
									{
										OFFSET 5.854543 -0.486203 -1.373841
										CHANNELS 3 Zrotation Yrotation Xrotation
										JOINT LeftHandRing3
										{
											OFFSET 4.350579 -0.000000 0.000003
											CHANNELS 3 Zrotation Yrotation Xrotation
											JOINT LeftHandRing4
											{
												OFFSET 2.651324 0.000007 0.000004
												CHANNELS 3 Zrotation Yrotation Xrotation
												JOINT LeftHandRingEnd
												{
													OFFSET 1.936111 0.077685 -0.000069
													CHANNELS 3 Zrotation Yrotation Xrotation
													End Site
													{
														OFFSET 0.000000 0.000000 0.000000
													}
												}
											}
										}
									}
								}
								JOINT LeftHandPinky1
								{
									OFFSET 2.865499 -0.310003 -1.600378
									CHANNELS 3 Zrotation Yrotation Xrotation
									JOINT LeftHandPinky2
									{
										OFFSET 5.087853 -1.331141 -1.771231
										CHANNELS 3 Zrotation Yrotation Xrotation
										JOINT LeftHandPinky3
										{
											OFFSET 3.070975 0.000003 0.000001
											CHANNELS 3 Zrotation Yrotation Xrotation
											JOINT LeftHandPinky4
											{
												OFFSET 1.549667 -0.000000 0.000001
												CHANNELS 3 Zrotation Yrotation Xrotation
												JOINT LeftHandPinkyEnd
												{
													OFFSET 1.944894 -0.157803 0.057219
													CHANNELS 3 Zrotation Yrotation Xrotation
													End Site
													{
														OFFSET 0.000000 0.000000 0.000000
													}
												}
											}
										}
									}
								}
							}
						}
					}
				}
				JOINT RightShoulder
				{
					OFFSET -1.380118 23.180307 5.214158
					CHANNELS 3 Zrotation Yrotation Xrotation
					JOINT RightArm
					{
						OFFSET -15.037197 0.000012 -5.545604
						CHANNELS 3 Zrotation Yrotation Xrotation
						JOINT RightForeArm
						{
							OFFSET -28.736639 0.000002 -0.002597
							CHANNELS 3 Zrotation Yrotation Xrotation
							JOINT RightHand
							{
								OFFSET -27.133617 0.000000 0.002612
								CHANNELS 3 Zrotation Yrotation Xrotation
								JOINT RightHandThumb1
								{
									OFFSET -2.274036 -1.383990 3.163128
									CHANNELS 3 Zrotation Yrotation Xrotation
									JOINT RightHandThumb2
									{
										OFFSET -4.011429 -1.827467 1.640914
										CHANNELS 3 Zrotation Yrotation Xrotation
										JOINT RightHandThumb3
										{
											OFFSET -2.794936 -0.000003 -0.000003
											CHANNELS 3 Zrotation Yrotation Xrotation
											JOINT RightHandThumbEnd
											{
												OFFSET -3.183854 0.000002 -0.000001
												CHANNELS 3 Zrotation Yrotation Xrotation
												End Site
												{
													OFFSET 0.000000 0.000000 0.000000
												}
											}
										}
									}
								}
								JOINT RightHandIndex1
								{
									OFFSET -3.253268 -0.520060 2.282866
									CHANNELS 3 Zrotation Yrotation Xrotation
									JOINT RightHandIndex2
									{
										OFFSET -6.341918 0.012472 0.178265
										CHANNELS 3 Zrotation Yrotation Xrotation
										JOINT RightHandIndex3
										{
											OFFSET -3.654874 -0.000009 -0.000001
											CHANNELS 3 Zrotation Yrotation Xrotation
											JOINT RightHandIndex4
											{
												OFFSET -2.327587 0.000001 -0.000000
												CHANNELS 3 Zrotation Yrotation Xrotation
												JOINT RightHandIndexEnd
												{
													OFFSET -2.761789 -0.180657 -0.113079
													CHANNELS 3 Zrotation Yrotation Xrotation
													End Site
													{
														OFFSET 0.000000 0.000000 0.000000
													}
												}
											}
										}
									}
								}
								JOINT RightHandMiddle1
								{
									OFFSET -3.168106 0.246593 1.001030
									CHANNELS 3 Zrotation Yrotation Xrotation
									JOINT RightHandMiddle2
									{
										OFFSET -6.180830 -0.258835 -1.000896
										CHANNELS 3 Zrotation Yrotation Xrotation
										JOINT RightHandMiddle3
										{
											OFFSET -4.348905 -0.000001 -0.000000
											CHANNELS 3 Zrotation Yrotation Xrotation
											JOINT RightHandMiddle4
											{
												OFFSET -3.000243 -0.000003 -0.000003
												CHANNELS 3 Zrotation Yrotation Xrotation
												JOINT RightHandMiddleEnd
												{
													OFFSET -2.302518 -0.294371 -0.031706
													CHANNELS 3 Zrotation Yrotation Xrotation
													End Site
													{
														OFFSET 0.000000 0.000000 0.000000
													}
												}
											}
										}
									}
								}
								JOINT RightHandRing1
								{
									OFFSET -2.885693 -0.067952 -0.308858
									CHANNELS 3 Zrotation Yrotation Xrotation
									JOINT RightHandRing2
									{
										OFFSET -5.854196 -0.486131 -1.373731
										CHANNELS 3 Zrotation Yrotation Xrotation
										JOINT RightHandRing3
										{
											OFFSET -4.338814 -0.000005 -0.000000
											CHANNELS 3 Zrotation Yrotation Xrotation
											JOINT RightHandRing4
											{
												OFFSET -2.654906 -0.000004 0.000003
												CHANNELS 3 Zrotation Yrotation Xrotation
												JOINT RightHandRingEnd
												{
													OFFSET -1.933570 0.077524 -0.000052
													CHANNELS 3 Zrotation Yrotation Xrotation
													End Site
													{
														OFFSET 0.000000 0.000000 0.000000
													}
												}
											}
										}
									}
								}
								JOINT RightHandPinky1
								{
									OFFSET -2.866430 -0.342798 -1.584145
									CHANNELS 3 Zrotation Yrotation Xrotation
									JOINT RightHandPinky2
									{
										OFFSET -5.091371 -1.332054 -1.772385
										CHANNELS 3 Zrotation Yrotation Xrotation
										JOINT RightHandPinky3
										{
											OFFSET -3.062666 -0.000008 -0.000000
											CHANNELS 3 Zrotation Yrotation Xrotation
											JOINT RightHandPinky4
											{
												OFFSET -1.546526 0.000005 -0.000003
												CHANNELS 3 Zrotation Yrotation Xrotation
												JOINT RightHandPinkyEnd
												{
													OFFSET -1.945122 -0.157721 0.057211
													CHANNELS 3 Zrotation Yrotation Xrotation
													End Site
													{
														OFFSET 0.000000 0.000000 0.000000
													}
												}
											}
										}
									}
								}
							}
						}
					}
				}
			}
		}
	}
	JOINT LeftLeg
	{
		OFFSET 10.043214 -8.434526 2.595655
		CHANNELS 3 Zrotation Yrotation Xrotation
		JOINT LeftShin
		{
			OFFSET -0.000002 -43.221752 -0.802912
			CHANNELS 3 Zrotation Yrotation Xrotation
			JOINT LeftFoot
			{
				OFFSET 0.000001 -42.155094 -3.481522
				CHANNELS 3 Zrotation Yrotation Xrotation
				JOINT LeftToeBase
				{
					OFFSET 0.000000 -5.059475 13.231529
					CHANNELS 3 Zrotation Yrotation Xrotation
					JOINT LeftToeEnd
					{
						OFFSET -0.009607 -1.647615 6.513017
						CHANNELS 3 Zrotation Yrotation Xrotation
						End Site
						{
							OFFSET 0.000000 0.000000 0.000000
						}
					}
				}
			}
		}
	}
	JOINT RightLeg
	{
		OFFSET -10.047277 -8.295259 2.620317
		CHANNELS 3 Zrotation Yrotation Xrotation
		JOINT RightShin
		{
			OFFSET 0.000000 -43.362209 -0.805555
			CHANNELS 3 Zrotation Yrotation Xrotation
			JOINT RightFoot
			{
				OFFSET 0.000003 -42.117393 -3.478398
				CHANNELS 3 Zrotation Yrotation Xrotation
				JOINT RightToeBase
				{
					OFFSET -0.000001 -5.079608 13.284196
					CHANNELS 3 Zrotation Yrotation Xrotation
					JOINT RightToeEnd
					{
						OFFSET 0.009532 -1.634383 6.460591
						CHANNELS 3 Zrotation Yrotation Xrotation
						End Site
						{
							OFFSET 0.000000 0.000000 0.000000
						}
					}
				}
			}
		}
	}
}
MOTION
Frames: 4
Frame Time: 0.033333
6.329796 94.152153 -0.372296 2.860330 0.121596 0.810997 -2.002840 -0.337270 4.273422 -0.799222 -0.621224 -2.866916 -3.267212 -3.013799 9.996929 6.068441 0.362148 5.770563 -2.923282 -8.013085 -3.270718 1.429578 -11.099375 -15.149396 0.000077 -0.000023 0.000006 -0.006784 -0.025605 0.006766 0.707515 -3.789432 -10.651666 -0.732742 3.753295 -10.694882 -0.015492 -9.901468 6.513783 -51.597481 -58.048943 -4.168479 -179.848938 -55.493774 -179.537811 4.452865 1.081690 -3.821321 -5.882100 9.861278 0.702590 -10.936863 -0.360575 7.156199 0.000001 8.774815 -0.000002 -16.545195 18.710897 6.109306 -1.844030 2.498503 -2.507276 -10.163589 4.678940 4.621104 -20.975994 -0.000003 0.000005 -21.226250 2.451694 -3.593993 0.000000 -0.000006 0.000001 -1.362679 2.240797 -0.746323 -21.334885 0.584909 3.008322 -13.821195 -0.000002 0.000005 -23.887129 -0.249076 -0.839478 -61.652241 2.427979 -1.524813 -0.294026 1.679686 0.833255 -14.218192 0.093214 1.300580 -34.212002 -0.287561 0.967173 -20.033176 0.964538 1.212844 0.000000 0.000000 0.000000 -3.440386 0.788232 0.501656 -15.928169 -3.167306 2.999704 -6.338817 -0.000001 0.000002 -18.123415 3.648177 -4.905660 -0.000004 -0.000000 -0.000003 1.531679 12.171416 4.230410 30.070063 40.788330 -35.691906 -179.704117 57.947784 -179.151184 -3.190957 5.755480 -3.499464 2.243540 -5.255032 -3.180157 14.282875 -0.826593 6.952495 -0.000000 -12.690588 0.000000 15.948731 -17.718040 2.727705 1.665666 -1.955920 -2.878296 4.727796 -4.170583 4.993918 11.020512 0.000001 -0.000001 12.109031 -3.735711 -2.866780 0.000001 -0.000000 0.000000 1.291984 -1.928548 -1.498088 14.800114 0.567468 3.865603 14.242553 -1.341736 -6.660650 19.631937 0.143926 -0.648244 50.011669 -0.918690 -6.198705 0.353029 -1.511149 -0.031941 20.222769 3.684304 2.316627 18.787245 0.000004 -0.000002 10.751611 -0.479867 1.397903 0.000000 0.000000 -0.000000 3.273803 0.305946 -0.580111 21.486790 11.830360 2.266130 8.162916 0.000002 -0.000001 18.399055 -3.798978 -4.940570 0.000003 0.000000 -0.000001 6.121384 16.852886 -11.258878 -0.102846 -0.576057 34.934273 -11.556724 -2.684545 -21.614258 1.633852 -1.916230 -0.554238 0.000000 -0.000000 0.000002 -12.161971 -30.552227 -28.441515 0.187441 0.127359 33.164139 10.291707 2.207016 -0.526679 -1.433319 0.696306 0.697642 -0.000000 -0.000000 -0.000001 
6.390148 94.148880 -0.270542 2.979758 0.067601 0.851932 -2.045718 -0.339675 4.313015 -0.769733 -0.633788 -2.874805 -3.313889 -3.046184 10.071913 6.048558 0.395535 5.711312 -2.976800 -7.950945 -3.266945 1.421821 -10.970961 -15.050059 0.000077 -0.000021 0.000006 -0.007318 -0.024514 0.004771 0.709108 -3.794734 -10.660941 -0.730761 3.749103 -10.705596 0.019466 -9.834718 6.409497 -51.713741 -58.010269 -3.885564 179.802078 -55.531826 -179.478455 4.206439 1.029038 -4.183274 -5.882102 9.861279 0.702589 -10.936858 -0.360574 7.156197 0.000001 8.774812 0.000000 -16.525291 18.737593 6.072326 -1.844032 2.498503 -2.507277 -10.163592 4.678939 4.621105 -20.975994 -0.000003 0.000003 -21.226248 2.451691 -3.593992 -0.000000 -0.000006 0.000000 -1.362680 2.240796 -0.746325 -21.334890 0.584909 3.008319 -13.821197 -0.000003 0.000003 -23.887131 -0.249079 -0.839482 -61.633499 2.301488 -1.553695 -0.294023 1.679686 0.833257 -14.218194 0.093213 1.300580 -34.212006 -0.287566 0.967169 -20.033178 0.964535 1.212842 -0.000000 0.000000 0.000000 -3.440387 0.788234 0.501655 -15.928167 -3.167305 2.999703 -6.338818 -0.000000 0.000002 -18.123415 3.648176 -4.905661 -0.000005 -0.000000 -0.000003 1.531826 12.165164 4.144700 29.815704 40.917046 -35.985699 -179.884171 57.830170 -179.332611 -3.149598 5.728716 -3.680203 2.243540 -5.255032 -3.180155 14.282875 -0.826592 6.952495 -0.000001 -12.690590 0.000001 15.931436 -17.571688 2.787513 1.665665 -1.955920 -2.878296 4.727792 -4.170583 4.993918 11.020512 0.000004 -0.000001 12.109033 -3.735709 -2.866779 0.000001 -0.000001 0.000000 1.291985 -1.928546 -1.498088 14.800111 0.567468 3.865603 14.242553 -1.341733 -6.660648 19.631939 0.143927 -0.648243 49.900036 -0.949357 -6.091826 0.353027 -1.511150 -0.031940 20.222769 3.684306 2.316627 18.787243 0.000005 -0.000001 10.751610 -0.479868 1.397904 0.000000 -0.000000 -0.000000 3.273805 0.305947 -0.580110 21.486790 11.830363 2.266130 8.162917 0.000002 -0.000000 18.399050 -3.798978 -4.940567 0.000003 0.000000 -0.000001 5.945464 16.813164 -11.172495 -0.103253 -0.570662 34.832069 -11.588849 -2.512571 -21.681173 1.627876 -1.934014 -0.547683 0.000000 0.000001 0.000002 -12.343210 -30.512165 -28.466421 0.176976 0.117858 33.234970 10.636161 2.416311 -0.632372 -1.432471 0.702789 0.609977 0.000000 0.000000 -0.000001 
6.410341 94.142181 -0.168945 3.101512 0.091920 0.911933 -2.085102 -0.333805 4.328313 -0.753200 -0.680830 -2.890907 -3.354707 -3.050058 10.135538 6.053209 0.411922 5.754127 -2.986078 -7.909797 -3.262419 1.413110 -10.935699 -14.996622 0.000077 -0.000022 0.000006 -0.002737 -0.019253 0.005339 0.708352 -3.788199 -10.666833 -0.723871 3.758098 -10.707425 0.063890 -9.864183 6.291011 -51.896416 -57.963058 -3.637713 179.691254 -55.637016 -179.497192 3.999587 0.989356 -4.473407 -5.882101 9.861278 0.702591 -10.936861 -0.360574 7.156196 0.000001 8.774813 0.000000 -16.493580 18.716105 6.071971 -1.844033 2.498502 -2.507276 -10.163589 4.678940 4.621105 -20.975994 -0.000004 0.000002 -21.226248 2.451691 -3.593993 -0.000000 -0.000006 0.000002 -1.362681 2.240797 -0.746323 -21.334887 0.584907 3.008320 -13.821192 -0.000004 0.000004 -23.887123 -0.249079 -0.839479 -61.693203 2.272017 -1.562508 -0.294023 1.679685 0.833256 -14.218190 0.093213 1.300579 -34.212002 -0.287565 0.967171 -20.033175 0.964534 1.212845 0.000000 0.000001 0.000001 -3.440386 0.788233 0.501655 -15.928164 -3.167306 2.999703 -6.338817 -0.000000 0.000002 -18.123411 3.648174 -4.905658 -0.000004 -0.000000 -0.000002 1.613197 12.117993 4.129766 29.456488 40.994247 -36.358620 179.862762 57.776615 -179.601883 -3.176477 5.773258 -3.776360 2.243540 -5.255032 -3.180155 14.282875 -0.826594 6.952497 -0.000003 -12.690592 0.000001 15.847915 -17.512440 2.826942 1.665665 -1.955920 -2.878296 4.727791 -4.170583 4.993918 11.020511 0.000002 -0.000001 12.109031 -3.735711 -2.866780 0.000001 0.000001 0.000000 1.291983 -1.928547 -1.498088 14.800111 0.567468 3.865604 14.242551 -1.341735 -6.660649 19.631935 0.143927 -0.648244 49.818699 -0.955152 -6.054288 0.353028 -1.511149 -0.031939 20.222763 3.684306 2.316627 18.787243 0.000004 -0.000000 10.751608 -0.479869 1.397904 0.000000 -0.000000 0.000000 3.273804 0.305947 -0.580110 21.486788 11.830362 2.266130 8.162916 0.000001 0.000000 18.399050 -3.798980 -4.940566 0.000003 -0.000000 -0.000001 5.805045 16.824680 -11.124829 -0.111722 -0.570925 34.738190 -11.665249 -2.445114 -21.667633 1.624835 -1.937326 -0.492764 0.000000 0.000001 0.000002 -12.513542 -30.537365 -28.510710 0.190295 0.120948 33.365437 10.859518 2.577064 -0.706364 -1.430615 0.721147 0.539796 0.000000 0.000000 -0.000001 
6.314429 94.110229 -0.130829 3.218822 0.159304 0.988840 -2.114870 -0.332576 4.334344 -0.751064 -0.721898 -2.896230 -3.390724 -3.072939 10.176055 6.052457 0.418870 5.821935 -2.986608 -7.887668 -3.256478 1.421052 -10.938956 -14.948833 0.000077 -0.000022 0.000006 -0.002895 -0.006267 0.005922 0.702500 -3.775528 -10.664077 -0.720132 3.762869 -10.707825 0.144357 -9.889068 6.136482 -52.140526 -57.933559 -3.411020 179.739777 -55.737823 -179.606461 3.848842 0.972615 -4.818085 -5.882101 9.861280 0.702589 -10.936858 -0.360576 7.156197 0.000000 8.774814 -0.000001 -16.402185 18.702528 6.108294 -1.844030 2.498503 -2.507275 -10.163590 4.678939 4.621102 -20.975994 -0.000005 0.000003 -21.226250 2.451691 -3.593992 0.000000 -0.000006 -0.000002 -1.362679 2.240797 -0.746324 -21.334887 0.584907 3.008322 -13.821197 -0.000002 0.000003 -23.887131 -0.249080 -0.839481 -61.699787 2.293220 -1.548457 -0.294025 1.679686 0.833254 -14.218192 0.093213 1.300579 -34.212002 -0.287564 0.967171 -20.033180 0.964535 1.212842 0.000000 0.000002 0.000000 -3.440386 0.788233 0.501657 -15.928167 -3.167307 2.999703 -6.338817 -0.000002 0.000001 -18.123415 3.648176 -4.905662 -0.000004 -0.000000 -0.000003 1.694430 12.018323 4.065265 29.143585 41.046669 -36.715576 179.590378 57.730244 -179.873947 -3.148417 5.822340 -3.986493 2.243540 -5.255033 -3.180155 14.282875 -0.826595 6.952496 -0.000002 -12.690591 -0.000000 15.777081 -17.479855 2.852664 1.665667 -1.955920 -2.878296 4.727797 -4.170583 4.993919 11.020511 0.000003 -0.000000 12.109032 -3.735710 -2.866779 0.000000 -0.000000 0.000000 1.291984 -1.928548 -1.498088 14.800113 0.567467 3.865602 14.242554 -1.341733 -6.660648 19.631939 0.143926 -0.648243 49.858765 -0.961328 -6.041449 0.353030 -1.511149 -0.031940 20.222773 3.684306 2.316628 18.787249 0.000005 0.000000 10.751610 -0.479868 1.397904 0.000000 0.000000 0.000000 3.273804 0.305947 -0.580110 21.486790 11.830365 2.266132 8.162917 0.000001 -0.000000 18.399052 -3.798980 -4.940568 0.000003 -0.000000 -0.000001 5.743731 16.851572 -11.199227 -0.113696 -0.554736 34.747650 -11.789633 -2.471013 -21.643187 1.623253 -1.937452 -0.405650 0.000000 -0.000000 0.000002 -12.574804 -30.582792 -28.706774 0.187850 0.108446 33.681755 10.952991 2.709273 -0.891527 -1.428221 0.739340 0.539850 -0.000000 0.000001 -0.000001 
